<?xml version="1.0" encoding="UTF-8"?>
<svg xmlns="http://www.w3.org/2000/svg" xmlns:xlink="http://www.w3.org/1999/xlink" width="26px" height="26px" viewBox="0 0 26 26" version="1.1">
<defs>
<linearGradient id="linear0" gradientUnits="userSpaceOnUse" x1="12.22" y1="24" x2="37.03" y2="24" gradientTransform="matrix(0.541667,0,0,0.541667,0,0)">
<stop offset="0" style="stop-color:rgb(0%,81.176471%,100%);stop-opacity:1;"/>
<stop offset="1" style="stop-color:rgb(0%,68.627451%,83.921569%);stop-opacity:1;"/>
</linearGradient>
</defs>
<g id="surface1">
<path style=" stroke:none;fill-rule:nonzero;fill:url(#linear0);" d="M 10.140625 4.5 C 8.902344 5.089844 7.910156 6.09375 7.339844 7.339844 C 6.179688 9.660156 6.421875 12.433594 7.960938 14.523438 L 13.339844 22.242188 L 18.714844 14.523438 C 19.585938 13.355469 20.050781 11.941406 20.042969 10.488281 C 20.042969 5.742188 15.167969 2.167969 10.140625 4.5 Z M 13.433594 12.734375 C 12.082031 12.738281 10.988281 11.644531 10.984375 10.296875 C 10.984375 8.945312 12.078125 7.851562 13.425781 7.847656 C 14.777344 7.847656 15.871094 8.941406 15.871094 10.292969 C 15.871094 11.640625 14.78125 12.730469 13.433594 12.734375 Z M 13.433594 12.734375 "/>
</g>
</svg>
