<?xml version="1.0" encoding="UTF-8"?>
<svg xmlns="http://www.w3.org/2000/svg" xmlns:xlink="http://www.w3.org/1999/xlink" width="26px" height="26px" viewBox="0 0 26 26" version="1.1">
<defs>
<filter id="alpha" filterUnits="objectBoundingBox" x="0%" y="0%" width="100%" height="100%">
  <feColorMatrix type="matrix" in="SourceGraphic" values="0 0 0 0 1 0 0 0 0 1 0 0 0 0 1 0 0 0 1 0"/>
</filter>
<mask id="mask0">
  <g filter="url(#alpha)">
<rect x="0" y="0" width="26" height="26" style="fill:rgb(0%,0%,0%);fill-opacity:0.101961;stroke:none;"/>
  </g>
</mask>
<clipPath id="clip1">
  <rect x="0" y="0" width="26" height="26"/>
</clipPath>
<g id="surface5" clip-path="url(#clip1)">
<path style=" stroke:none;fill-rule:nonzero;fill:rgb(13.72549%,12.156863%,12.54902%);fill-opacity:1;" d="M 4.574219 21.425781 C 6.730469 23.582031 9.710938 24.917969 13 24.917969 C 19.582031 24.917969 24.917969 19.582031 24.917969 13 C 24.917969 9.710938 23.582031 6.730469 21.425781 4.574219 Z M 4.574219 21.425781 "/>
</g>
</defs>
<g id="surface1">
<path style=" stroke:none;fill-rule:nonzero;fill:rgb(54.901961%,61.960784%,100%);fill-opacity:1;" d="M 24.917969 12.996094 C 24.917969 19.578125 19.582031 24.914062 13 24.914062 C 6.417969 24.914062 1.082031 19.578125 1.082031 12.996094 C 1.082031 6.414062 6.417969 1.082031 13 1.082031 C 19.582031 1.082031 24.917969 6.414062 24.917969 12.996094 Z M 24.917969 12.996094 "/>
<path style=" stroke:none;fill-rule:nonzero;fill:rgb(100%,100%,100%);fill-opacity:1;" d="M 18.171875 9.140625 C 18.171875 9.140625 16.699219 7.988281 14.957031 7.855469 L 14.800781 8.167969 C 16.375 8.554688 17.097656 9.105469 17.851562 9.785156 C 16.550781 9.121094 15.265625 8.496094 13.027344 8.496094 C 10.789062 8.496094 9.503906 9.121094 8.203125 9.785156 C 8.957031 9.105469 9.816406 8.492188 11.253906 8.167969 L 11.097656 7.855469 C 9.269531 8.027344 7.882812 9.140625 7.882812 9.140625 C 7.882812 9.140625 6.234375 11.527344 5.953125 16.214844 C 7.613281 18.128906 10.132812 18.144531 10.132812 18.144531 L 10.660156 17.441406 C 9.765625 17.132812 8.753906 16.578125 7.882812 15.574219 C 8.921875 16.359375 10.496094 17.179688 13.027344 17.179688 C 15.558594 17.179688 17.132812 16.359375 18.171875 15.574219 C 17.300781 16.578125 16.289062 17.132812 15.394531 17.441406 L 15.921875 18.144531 C 15.921875 18.144531 18.441406 18.128906 20.101562 16.214844 C 19.820312 11.527344 18.171875 9.140625 18.171875 9.140625 Z M 10.9375 14.929688 C 10.316406 14.929688 9.8125 14.355469 9.8125 13.644531 C 9.8125 12.933594 10.316406 12.355469 10.9375 12.355469 C 11.558594 12.355469 12.0625 12.933594 12.0625 13.644531 C 12.0625 14.355469 11.558594 14.929688 10.9375 14.929688 Z M 15.117188 14.929688 C 14.496094 14.929688 13.992188 14.355469 13.992188 13.644531 C 13.992188 12.933594 14.496094 12.355469 15.117188 12.355469 C 15.738281 12.355469 16.242188 12.933594 16.242188 13.644531 C 16.242188 14.355469 15.738281 14.929688 15.117188 14.929688 Z M 15.117188 14.929688 "/>
<use xlink:href="#surface5" mask="url(#mask0)"/>
</g>
</svg>
