<?xml version="1.0" encoding="UTF-8"?>
<svg xmlns="http://www.w3.org/2000/svg" xmlns:xlink="http://www.w3.org/1999/xlink" width="26px" height="26px" viewBox="0 0 26 26" version="1.1">
<g id="surface1">
<path style=" stroke:none;fill-rule:nonzero;fill:rgb(0%,65.490196%,92.156863%);fill-opacity:1;" d="M 3.878906 19.703125 C 4.316406 19.257812 10.734375 13.824219 10.824219 13.824219 C 10.871094 13.824219 11.3125 14.171875 11.804688 14.601562 C 12.339844 15.066406 12.777344 15.375 12.902344 15.375 C 13.027344 15.375 13.496094 15.046875 14.074219 14.554688 C 14.664062 14.050781 15.078125 13.761719 15.136719 13.8125 C 15.191406 13.855469 15.871094 14.433594 16.648438 15.097656 C 20.585938 18.457031 22.214844 19.863281 22.214844 19.894531 C 22.214844 19.917969 18.039062 19.933594 12.933594 19.933594 L 3.652344 19.933594 Z M 2.597656 13.105469 C 2.597656 9.660156 2.628906 6.839844 2.667969 6.84375 C 2.773438 6.847656 9.925781 12.988281 9.953125 13.097656 C 9.976562 13.191406 2.988281 19.214844 2.734375 19.316406 C 2.617188 19.367188 2.597656 18.574219 2.597656 13.105469 Z M 19.460938 16.21875 C 17.519531 14.554688 15.90625 13.164062 15.875 13.128906 C 15.820312 13.070312 22.921875 6.933594 23.128906 6.855469 C 23.1875 6.835938 23.21875 9.082031 23.21875 13.039062 C 23.21875 17.949219 23.195312 19.253906 23.105469 19.25 C 23.042969 19.246094 21.402344 17.882812 19.460938 16.21875 Z M 9.214844 11.09375 C 7.207031 9.378906 5.125 7.601562 4.585938 7.140625 L 3.609375 6.308594 L 8.261719 6.28125 C 10.816406 6.269531 15 6.269531 17.558594 6.28125 L 22.207031 6.308594 L 19.371094 8.730469 C 17.8125 10.066406 15.734375 11.84375 14.753906 12.683594 C 13.769531 13.523438 12.945312 14.210938 12.914062 14.210938 C 12.886719 14.210938 11.222656 12.808594 9.214844 11.09375 Z M 9.214844 11.09375 "/>
</g>
</svg>
