<?xml version="1.0" encoding="UTF-8"?>
<svg xmlns="http://www.w3.org/2000/svg" xmlns:xlink="http://www.w3.org/1999/xlink" width="26px" height="26px" viewBox="0 0 26 26" version="1.1">
<g id="surface1">
<path style=" stroke:none;fill-rule:evenodd;fill:rgb(24.313725%,45.882353%,76.470588%);fill-opacity:1;" d="M 13 0.269531 C 5.820312 0.269531 0 6.113281 0 13.324219 C 0 19.089844 3.722656 23.980469 8.890625 25.707031 C 9.542969 25.828125 9.777344 25.421875 9.777344 25.078125 C 9.777344 24.769531 9.765625 23.945312 9.761719 22.859375 C 6.144531 23.648438 5.382812 21.109375 5.382812 21.109375 C 4.789062 19.601562 3.9375 19.199219 3.9375 19.199219 C 2.757812 18.390625 4.027344 18.40625 4.027344 18.40625 C 5.332031 18.5 6.019531 19.75 6.019531 19.75 C 7.179688 21.746094 9.0625 21.167969 9.800781 20.835938 C 9.917969 19.992188 10.257812 19.417969 10.628906 19.089844 C 7.742188 18.761719 4.707031 17.640625 4.707031 12.640625 C 4.707031 11.214844 5.210938 10.050781 6.042969 9.136719 C 5.910156 8.808594 5.464844 7.480469 6.171875 5.683594 C 6.171875 5.683594 7.261719 5.332031 9.746094 7.023438 C 10.785156 6.730469 11.894531 6.589844 13 6.582031 C 14.105469 6.589844 15.21875 6.730469 16.253906 7.023438 C 18.738281 5.332031 19.828125 5.683594 19.828125 5.683594 C 20.535156 7.480469 20.089844 8.808594 19.957031 9.136719 C 20.789062 10.050781 21.292969 11.214844 21.292969 12.640625 C 21.292969 17.652344 18.253906 18.757812 15.355469 19.082031 C 15.824219 19.484375 16.238281 20.28125 16.238281 21.496094 C 16.238281 23.242188 16.222656 24.648438 16.222656 25.078125 C 16.222656 25.425781 16.457031 25.832031 17.117188 25.707031 C 22.277344 23.976562 26 19.085938 26 13.324219 C 26 6.113281 20.179688 0.269531 13 0.269531 "/>
</g>
</svg>
