<?xml version="1.0" encoding="UTF-8"?>
<svg xmlns="http://www.w3.org/2000/svg" xmlns:xlink="http://www.w3.org/1999/xlink" width="26px" height="26px" viewBox="0 0 26 26" version="1.1">
<defs>
<linearGradient id="linear0" gradientUnits="userSpaceOnUse" x1="18.0028" y1="2.0016" x2="6.0028" y2="30" gradientTransform="matrix(0.541667,0,0,0.541667,0,0)">
<stop offset="0" style="stop-color:rgb(21.568627%,68.235294%,88.627451%);stop-opacity:1;"/>
<stop offset="1" style="stop-color:rgb(11.764706%,58.823529%,78.431373%);stop-opacity:1;"/>
</linearGradient>
</defs>
<g id="surface1">
<path style=" stroke:none;fill-rule:nonzero;fill:url(#linear0);" d="M 13 26 C 20.179688 26 26 20.179688 26 13 C 26 5.820312 20.179688 0 13 0 C 5.820312 0 0 5.820312 0 13 C 0 20.179688 5.820312 26 13 26 Z M 13 26 "/>
<path style=" stroke:none;fill-rule:nonzero;fill:rgb(100%,100%,100%);fill-opacity:1;" d="M 4.839844 13.636719 C 6.359375 12.796875 8.058594 12.101562 9.644531 11.398438 C 12.371094 10.246094 15.105469 9.117188 17.871094 8.066406 C 18.410156 7.886719 19.378906 7.710938 19.472656 8.507812 C 19.421875 9.636719 19.207031 10.757812 19.058594 11.878906 C 18.6875 14.347656 18.257812 16.808594 17.839844 19.265625 C 17.695312 20.085938 16.667969 20.507812 16.011719 19.984375 C 14.433594 18.917969 12.84375 17.863281 11.285156 16.773438 C 10.777344 16.253906 11.25 15.511719 11.707031 15.140625 C 13.003906 13.859375 14.382812 12.769531 15.613281 11.421875 C 15.949219 10.621094 14.964844 11.296875 14.640625 11.503906 C 12.863281 12.730469 11.125 14.03125 9.25 15.109375 C 8.292969 15.636719 7.175781 15.1875 6.21875 14.890625 C 5.359375 14.535156 4.101562 14.179688 4.839844 13.636719 Z M 4.839844 13.636719 "/>
</g>
</svg>
